<svg width="218" height="248" viewBox="0 0 218 248" fill="none" xmlns="http://www.w3.org/2000/svg">
<path d="M10.7468 67.2735L109 10.547L207.253 67.2735V180.727L109 237.453L10.7468 180.727V67.2735Z" stroke="#2563eb" stroke-width="20"/>
<path d="M125.568 126.568L144.4 125.16C151.44 125.16 154.96 128.739 154.96 135.896C154.96 140.003 154.432 146.397 153.376 155.08C152.32 163.763 151.792 170.803 151.792 176.2C148.859 176.669 142.288 178.429 132.08 181.48C121.989 184.531 113.541 186.056 106.736 186.056C90.0747 186.056 77.4613 180.893 68.896 170.568C60.448 160.243 56.224 146.163 56.224 128.328C56.224 115.656 58.512 104.04 63.088 93.48C67.7813 82.92 74.704 74.3547 83.856 67.784C93.008 61.2133 103.099 57.928 114.128 57.928C125.275 57.928 134.544 60.5093 141.936 65.672C149.445 70.8347 153.2 77.816 153.2 86.616C153.2 91.544 151.733 95.7093 148.8 99.112C145.984 102.397 142.347 104.04 137.888 104.04C133.429 104.04 130.32 103.512 128.56 102.456C128.912 100.344 129.088 98.232 129.088 96.12C129.088 89.9013 127.328 84.856 123.808 80.984C120.288 76.9947 115.301 75 108.848 75C102.395 75 96.2933 77.1707 90.544 81.512C87.1413 86.3227 84.5013 92.8933 82.624 101.224C80.7467 109.555 79.808 117.651 79.808 125.512C79.808 138.184 82.272 148.627 87.2 156.84C92.128 164.936 99.9307 168.984 110.608 168.984C118.469 168.984 125.803 166.696 132.608 162.12C133.077 157.544 133.312 150.973 133.312 142.408C128.619 143.816 124.981 144.52 122.4 144.52C115.947 144.52 112.72 141.117 112.72 134.312C112.72 131.379 113.307 128.269 114.48 124.984C117.648 126.04 121.344 126.568 125.568 126.568Z" fill="#2563eb"/>
</svg>
